<?xml version="1.0" standalone="no"?>
<!DOCTYPE svg PUBLIC "-//W3C//DTD SVG 20010904//EN"
 "http://www.w3.org/TR/2001/REC-SVG-20010904/DTD/svg10.dtd">
<svg version="1.0" xmlns="http://www.w3.org/2000/svg"
 width="1280.000000pt" height="388.000000pt" viewBox="0 0 1280.000000 388.000000"
 preserveAspectRatio="xMidYMid meet">

<g transform="translate(0.000000,388.000000) scale(0.100000,-0.100000)"
fill="#000000" stroke="none">
<path d="M12130 3170 c-10 -20 -21 -20 -510 -20 -365 0 -501 -3 -506 -12 -4
-6 4 -19 19 -30 l27 -20 0 -489 0 -489 -25 -16 c-14 -9 -25 -23 -25 -30 0 -12
83 -14 514 -14 l514 0 16 -25 c9 -14 21 -23 27 -19 13 8 9 274 -4 274 -5 0
-18 -11 -29 -25 l-19 -25 -365 0 -364 0 0 150 0 150 234 0 c200 0 237 -2 250
-16 9 -8 16 -20 16 -25 0 -5 7 -9 15 -9 13 0 15 22 15 140 0 118 -2 140 -15
140 -8 0 -15 -4 -15 -9 0 -5 -7 -17 -16 -25 -13 -14 -50 -16 -250 -16 l-234 0
0 130 0 130 350 0 351 0 25 -25 c14 -14 29 -25 34 -25 6 0 10 56 10 135 0 112
-3 135 -15 135 -8 0 -19 -9 -25 -20z"/>
<path d="M8645 3159 c-215 -16 -391 -121 -479 -289 -47 -89 -66 -166 -66 -270
0 -161 50 -282 164 -396 120 -120 250 -167 461 -167 212 0 341 47 461 167 141
141 193 324 149 529 -20 94 -68 181 -145 258 -130 132 -302 185 -545 168z
m155 -189 c129 -25 239 -109 281 -217 30 -78 33 -215 5 -288 -41 -108 -115
-182 -220 -221 -74 -27 -221 -25 -296 4 -80 31 -152 99 -192 180 -31 62 -33
73 -33 172 0 93 3 111 27 162 74 159 247 242 428 208z"/>
<path d="M6724 3138 c-4 -6 4 -19 19 -30 l27 -20 0 -488 0 -488 -27 -20 c-48
-35 -23 -42 153 -42 157 0 164 1 164 20 0 11 -7 20 -15 20 -29 0 -35 39 -35
239 l0 201 315 0 315 0 0 -209 0 -209 -27 -20 c-48 -35 -23 -42 147 -42 170 0
195 7 147 42 l-27 20 0 488 0 488 27 20 c48 35 23 42 -147 42 -170 0 -195 -7
-147 -42 l27 -20 0 -189 0 -189 -315 0 -315 0 0 181 c0 180 6 219 35 219 8 0
15 9 15 20 0 19 -7 20 -164 20 -114 0 -167 -4 -172 -12z"/>
<path d="M9534 3138 c-4 -6 4 -19 19 -30 l27 -20 0 -488 0 -488 -27 -20 c-48
-35 -23 -42 143 -42 147 0 154 1 154 20 0 11 -7 20 -15 20 -8 0 -19 9 -25 19
-13 25 -14 689 -1 676 5 -6 94 -168 198 -361 103 -193 192 -353 196 -355 4 -2
98 156 208 351 111 195 205 359 210 364 5 6 9 -126 9 -327 l0 -338 -25 -23
c-46 -43 -36 -46 139 -46 176 0 201 7 153 42 l-27 20 0 488 0 488 27 20 c50
36 24 42 -188 42 -192 0 -199 -1 -199 -20 0 -11 6 -20 14 -20 19 0 27 -26 17
-53 -7 -19 -121 -229 -276 -510 -21 -38 -41 -65 -45 -60 -11 12 -279 519 -296
559 -13 31 -13 35 6 54 11 11 20 27 20 35 0 13 -29 15 -204 15 -144 0 -207 -3
-212 -12z"/>
<path d="M660 1970 l0 -1170 2945 0 2945 0 0 1170 0 1170 -2945 0 -2945 0 0
-1170z m4204 1104 c79 -79 175 -296 218 -494 27 -125 29 -321 4 -435 -70 -317
-260 -612 -445 -692 -92 -39 -243 23 -293 120 -32 63 -36 172 -9 278 54 212
227 469 363 540 51 26 85 24 154 -11 32 -16 60 -28 61 -26 4 3 -32 182 -43
211 -19 56 -94 210 -142 294 -50 86 -53 95 -41 118 14 27 67 71 114 96 38 20
40 20 59 1z m-2698 -183 c35 -21 64 -75 72 -134 l5 -40 -84 6 c-46 3 -137 3
-203 0 l-118 -6 -19 -31 c-27 -44 -148 -354 -207 -532 -90 -266 -163 -537
-192 -706 -13 -75 -18 -78 -76 -53 -68 28 -144 108 -144 151 0 33 86 293 216
656 118 329 161 464 153 473 -3 2 -68 -1 -145 -7 -133 -11 -141 -10 -187 10
-40 18 -51 29 -69 68 -16 38 -19 55 -11 88 7 36 11 41 33 37 64 -10 435 1 610
18 267 25 327 26 366 2z m1553 -496 c54 -50 86 -112 78 -147 -4 -13 -45 -91
-93 -173 -100 -175 -154 -277 -154 -295 0 -6 42 37 92 97 119 138 279 304 343
353 142 109 245 116 304 19 l19 -31 -43 -42 c-48 -48 -141 -229 -174 -340 -29
-93 -36 -167 -21 -196 11 -21 17 -22 66 -16 44 5 56 3 60 -9 15 -37 -89 -95
-171 -95 -107 0 -165 66 -165 190 0 50 9 91 41 180 22 63 43 124 46 134 10 31
-107 -57 -185 -138 -93 -99 -145 -161 -251 -304 -51 -68 -98 -125 -106 -128
-44 -17 -101 79 -98 164 4 99 71 320 152 502 83 184 166 320 196 320 9 0 37
-20 64 -45z m-1514 6 c33 -16 69 -36 79 -44 19 -14 19 -15 -7 -47 -31 -36
-112 -199 -123 -245 l-7 -30 29 25 c59 50 177 176 226 241 27 37 58 69 68 72
22 6 88 -7 101 -20 5 -5 1 -31 -7 -58 -19 -59 -22 -188 -5 -229 12 -31 9 -39
-41 -100 -24 -28 -25 -28 -56 -12 -29 15 -88 82 -118 132 -10 17 -17 14 -83
-40 -153 -125 -224 -253 -291 -523 -13 -52 -28 -54 -91 -15 -87 56 -86 51 -44
209 69 264 194 611 245 683 27 38 49 38 125 1z m3393 -6 c37 -17 51 -29 46
-37 -5 -7 -27 -40 -51 -74 -103 -148 -241 -472 -259 -611 -6 -47 -5 -53 12
-53 30 0 92 49 143 114 67 85 124 175 226 361 125 228 154 275 173 275 27 0
126 -31 146 -45 22 -17 27 -1 -68 -219 -31 -71 -87 -219 -125 -330 -110 -324
-181 -471 -307 -632 -141 -181 -301 -284 -441 -284 -86 0 -199 40 -257 90 -66
58 -38 102 35 53 37 -24 51 -28 108 -26 181 5 386 195 526 487 45 94 128 323
122 339 -1 4 -25 -24 -52 -64 -94 -138 -202 -239 -255 -239 -45 0 -147 57
-171 96 -45 73 -18 228 77 450 57 133 130 257 191 322 43 46 54 52 89 52 21 0
63 -11 92 -25z m-2405 -24 c66 -45 73 -65 58 -150 -24 -136 -99 -250 -215
-330 -26 -18 -100 -58 -163 -88 l-115 -55 6 -61 c9 -85 30 -111 91 -115 69 -5
151 39 252 132 78 73 81 75 97 57 17 -18 14 -22 -51 -91 -108 -115 -239 -199
-309 -200 -109 -1 -229 89 -260 196 -60 207 108 553 337 692 103 62 194 67
272 13z"/>
<path d="M4865 2253 c-114 -90 -231 -247 -309 -414 -66 -142 -81 -222 -51
-279 41 -80 137 -30 240 125 96 143 161 329 174 492 9 118 6 123 -54 76z"/>
<path d="M3060 2218 c-25 -12 -75 -51 -111 -88 -51 -50 -77 -87 -113 -161 -25
-52 -46 -103 -46 -112 0 -16 2 -16 33 -1 147 75 297 256 297 361 0 28 -4 28
-60 1z"/>
<path d="M12152 1913 l-20 -28 -487 0 -488 0 -14 23 c-9 12 -22 22 -29 22 -11
0 -14 -27 -14 -135 0 -79 4 -135 10 -135 5 0 20 11 34 25 l26 25 177 -2 178
-3 3 -423 2 -423 -25 -23 c-47 -44 -37 -47 142 -44 169 3 199 11 148 38 -15 8
-27 25 -30 44 -3 17 -4 211 -3 431 l3 400 178 3 177 2 26 -25 c14 -14 29 -25
34 -25 13 0 13 267 1 274 -5 4 -18 -6 -29 -21z"/>
<path d="M6727 1877 c-8 -5 -3 -14 16 -28 l27 -21 0 -488 0 -488 -27 -20 c-48
-35 -23 -42 143 -42 165 0 175 4 129 46 l-25 23 0 338 c0 201 4 333 9 328 5
-6 96 -171 201 -368 106 -197 196 -355 200 -350 4 4 96 166 205 358 108 193
201 354 206 359 5 6 9 -126 9 -327 l0 -338 -25 -23 c-46 -43 -36 -46 139 -46
176 0 201 7 153 42 l-27 20 0 488 0 488 27 20 c16 11 25 23 22 26 -3 3 -95 7
-205 8 -178 1 -199 -1 -202 -15 -2 -10 3 -17 11 -17 27 0 28 -32 3 -84 -49
-101 -293 -538 -301 -538 -9 0 -287 517 -304 565 -8 23 -7 31 10 48 11 11 19
25 17 30 -4 11 -395 17 -411 6z"/>
<path d="M8757 1878 c-8 -5 -2 -17 18 -38 l29 -30 -16 -43 c-9 -23 -112 -239
-229 -480 -177 -366 -217 -441 -241 -453 -15 -8 -28 -21 -28 -29 0 -13 28 -15
180 -15 154 0 180 2 180 15 0 9 -11 20 -24 27 -14 6 -28 18 -31 26 -3 9 15 60
41 114 l47 98 252 0 252 0 42 -89 c22 -49 41 -98 41 -109 0 -11 -12 -29 -27
-40 -50 -37 -22 -43 182 -40 139 2 189 6 192 15 3 7 -6 17 -20 22 -14 5 -34
23 -45 38 -38 54 -462 915 -462 939 0 14 10 30 25 40 14 9 24 21 23 26 -4 11
-365 16 -381 6z m268 -463 c42 -93 79 -176 82 -182 4 -10 -34 -13 -171 -13
-97 0 -176 3 -176 7 0 3 23 56 52 117 28 61 66 144 85 185 19 41 38 70 42 65
5 -5 43 -85 86 -179z"/>
<path d="M9787 1877 c-8 -5 -3 -14 16 -28 l27 -21 0 -489 0 -489 -25 -16 c-14
-9 -25 -23 -25 -30 0 -11 32 -14 170 -14 138 0 170 3 170 14 0 7 -11 21 -25
30 l-25 16 0 195 0 195 148 0 147 -1 120 -175 c148 -216 146 -211 116 -234
-46 -34 -19 -40 180 -40 154 0 189 3 189 14 0 7 -13 19 -29 26 -16 6 -49 37
-74 68 -38 49 -220 305 -240 339 -5 8 12 17 50 28 78 23 111 41 156 83 101 97
103 316 4 428 -38 45 -106 79 -182 93 -69 14 -850 21 -868 8z m820 -190 c49
-26 63 -53 63 -123 0 -52 -4 -67 -26 -93 -14 -17 -42 -35 -62 -41 -20 -5 -143
-10 -274 -10 l-238 0 0 146 0 146 253 -4 c216 -3 257 -6 284 -21z"/>
</g>
</svg>
